# xmcd
#
# Track frame offsets: 
#        150
#        13227
#        31992
#        56135
#        78085
#        97137
#        115737
#        141022
#        164692
#        183710
#        205837
#        221572
#        245507
#        267780
#        289227
#        308322
#
# Disc length: 4356 seconds
#
# Revision: 5
# Processed by: cddbd v1.5.2PL0 Copyright (c) Steve Scherf et al.
# Submitted via: ExactAudioCopyFreeDBPlugin 1.0
#
DISCID=e7110210
DTITLE=Masta Ace Incorporated - Sittin' On Chrome
DYEAR=1995
DGENRE=Hip-Hop/Rap
TTITLE0=Intro
TTITLE1=The I.N.C. Ride
TTITLE2=Eastbound
TTITLE3=What's Going On!
TTITLE4=The B-Side
TTITLE5=Sittin' On Chrome
TTITLE6=People In My Hood
TTITLE7=Turn It Up
TTITLE8=U Can't Find Me
TTITLE9=Ain't No Game
TTITLE10=Freestyle
TTITLE11=Terror
TTITLE12=Da Answer
TTITLE13=4 Da Mind Feat. The Cella Dwellas
TTITLE14=Born To Roll
TTITLE15=The Phat Kat Ride
EXTD=RapMusicGuide.com
EXTT0=
EXTT1=
EXTT2=
EXTT3=
EXTT4=
EXTT5=
EXTT6=
EXTT7=
EXTT8=
EXTT9=
EXTT10=
EXTT11=
EXTT12=
EXTT13=
EXTT14=
EXTT15=
PLAYORDER=
